<?xml version="1.0" encoding="UTF-8" standalone="no"?>
<svg
   xmlns:dc="http://purl.org/dc/elements/1.1/"
   xmlns:cc="http://creativecommons.org/ns#"
   xmlns:rdf="http://www.w3.org/1999/02/22-rdf-syntax-ns#"
   xmlns:svg="http://www.w3.org/2000/svg"
   xmlns="http://www.w3.org/2000/svg"
   xmlns:sodipodi="http://sodipodi.sourceforge.net/DTD/sodipodi-0.dtd"
   xmlns:inkscape="http://www.inkscape.org/namespaces/inkscape"
   id="svg2"
   xml:space="preserve"
   height="677.09204"
   width="500"
   version="1.1"
   viewBox="0 0 499.994 677.08931"
   inkscape:version="0.91 r13725"
   sodipodi:docname="Logo-J2ME.svg"><defs
     id="defs4232" /><sodipodi:namedview
     pagecolor="#ffffff"
     bordercolor="#666666"
     borderopacity="1"
     objecttolerance="10"
     gridtolerance="10"
     guidetolerance="10"
     inkscape:pageopacity="0"
     inkscape:pageshadow="2"
     inkscape:window-width="1920"
     inkscape:window-height="1027"
     id="namedview4230"
     showgrid="false"
     fit-margin-top="0"
     fit-margin-left="0"
     fit-margin-right="0"
     fit-margin-bottom="0"
     inkscape:zoom="0.57758962"
     inkscape:cx="464.17413"
     inkscape:cy="271.93824"
     inkscape:window-x="-8"
     inkscape:window-y="-8"
     inkscape:window-maximized="1"
     inkscape:current-layer="svg2" /><metadata
     id="metadata8"><rdf:RDF><cc:Work
         rdf:about=""><dc:format>image/svg+xml</dc:format><dc:type
           rdf:resource="http://purl.org/dc/dcmitype/StillImage" /><dc:title></dc:title></cc:Work></rdf:RDF></metadata><g
     id="g4862"
     transform="matrix(3.4147112,0,0,3.4147112,480.58263,127.18761)"><path
       id="path156"
       d="m -47.611373,-37.041424 c 4.53125,5.16 6.0275,12.54125 4.72625,19.1975 -1.40125,7.476251 -5.54875,14.085001 -10.42,19.777502 -3.906251,4.5825 -8.39375,8.63375 -13.071251,12.39625 -5.45125,4.39 -10.806251,9.116251 -14.230001,15.291251 -2.895,5.016251 -3.57,11.190001 -1.5925,16.641251 3.231251,9.357501 10.757501,16.30375 14.857501,25.131251 -4.535,-4.00375 -8.9725,-8.1525 -13.12125,-12.541251 -4.341251,-4.63125 -8.441251,-9.55125 -11.142501,-15.34 -1.832501,-4.052501 -2.6525,-8.778751 -1.25375,-13.071251 1.39875,-4.390001 4.53375,-7.91125 7.67,-11.19125 8.73,-8.731251 19.486251,-15.146252 28.023751,-24.021252 4.730001,-4.8725 8.636251,-10.70875 9.986251,-17.41375 1.11,-4.920001 0.578749,-9.985001 -0.4325,-14.856251"
       inkscape:connector-curvature="0"
       style="fill:#e9232e" /><path
       id="path158"
       d="m -47.611373,-37.041424 c 4.53125,5.16 6.0275,12.54125 4.72625,19.1975 -1.40125,7.476251 -5.54875,14.085001 -10.42,19.777502 -3.906251,4.5825 -8.39375,8.63375 -13.071251,12.39625 -5.45125,4.39 -10.806251,9.116251 -14.230001,15.291251 -2.895,5.016251 -3.57,11.190001 -1.5925,16.641251 3.231251,9.357501 10.757501,16.30375 14.857501,25.131251 -4.535,-4.00375 -8.9725,-8.1525 -13.12125,-12.541251 -4.341251,-4.63125 -8.441251,-9.55125 -11.142501,-15.34 -1.832501,-4.052501 -2.6525,-8.778751 -1.25375,-13.071251 1.39875,-4.390001 4.53375,-7.91125 7.67,-11.19125 8.73,-8.731251 19.486251,-15.146252 28.023751,-24.021252 4.730001,-4.8725 8.636251,-10.70875 9.986251,-17.41375 1.11,-4.920001 0.578749,-9.985001 -0.4325,-14.856251 z"
       stroke-miterlimit="10"
       inkscape:connector-curvature="0"
       style="fill:none;stroke:#e9232e;stroke-width:0.1171875;stroke-miterlimit:10" /><path
       id="path160"
       d="m -54.748874,17.896078 c 9.357501,-6.89875 20.307502,-11.2875 31.401252,-14.47125 -8.77625,5.595 -17.941251,10.707501 -25.515001,17.895001 -2.75125,2.6525 -5.353751,5.6925 -6.560001,9.40625 -0.917499,2.75 -0.5325,5.78875 0.578751,8.39375 2.02625,4.630001 5.44875,8.3925 8.05375,12.637501 2.22,3.617501 2.605,8.248751 0.91875,12.156251 -2.55875,5.74 -7.573751,9.93625 -12.783751,13.26375 -0.67625,0.38625 -1.255,1.11 -2.074999,1.20625 3.47375,-3.135 6.17375,-7.5725 6.078749,-12.34875 -0.0975,-3.56875 -2.074999,-6.70375 -4.39,-9.261251 -4.775,-5.69125 -8.778751,-12.927501 -7.95875,-20.596251 0.82,-7.670001 6.318751,-13.84375 12.25125,-18.281251"
       inkscape:connector-curvature="0"
       style="fill:#e9232e" /><path
       id="path162"
       d="m -54.748874,17.896078 c 9.357501,-6.89875 20.307502,-11.2875 31.401252,-14.47125 -8.77625,5.595 -17.941251,10.707501 -25.515001,17.895001 -2.75125,2.6525 -5.353751,5.6925 -6.560001,9.40625 -0.917499,2.75 -0.5325,5.78875 0.578751,8.39375 2.02625,4.630001 5.44875,8.3925 8.05375,12.637501 2.22,3.617501 2.605,8.248751 0.91875,12.156251 -2.55875,5.74 -7.573751,9.93625 -12.783751,13.26375 -0.67625,0.38625 -1.255,1.11 -2.074999,1.20625 3.47375,-3.135 6.17375,-7.5725 6.078749,-12.34875 -0.0975,-3.56875 -2.074999,-6.70375 -4.39,-9.261251 -4.775,-5.69125 -8.778751,-12.927501 -7.95875,-20.596251 0.82,-7.670001 6.318751,-13.84375 12.25125,-18.281251 z"
       stroke-miterlimit="10"
       inkscape:connector-curvature="0"
       style="fill:none;stroke:#e9232e;stroke-width:0.1171875;stroke-miterlimit:10" /><path
       id="path164"
       d="m -21.561372,73.658581 c 2.02375,-2.46 5.25625,-3.0875 8.1975,-3.47375 5.1150103,-0.675 10.5650003,0.6275 14.4237503,4.14875 3.18375,2.845 4.96875,7.28375 4.2925,11.57625 -0.7225,4.96875 -4.0525,9.1175 -7.8125,12.2525 -6.80125,5.449999 -15.1950003,8.633759 -23.5887503,10.756249 0.48375,-0.53125 1.01375,-1.0125 1.64,-1.39875 6.3675,-3.425 12.68625,-7.4275 17.3662503,-13.023739 2.84375,-3.47251 5.06375,-8.00751 4.1475,-12.59001 -0.96375,-5.305 -6.125,-9.165 -11.3837503,-9.45375 -2.51,-0.24125 -4.87125,0.72375 -7.2825,1.20625"
       inkscape:connector-curvature="0"
       style="fill:#3471c0" /><path
       id="path166"
       d="m -21.561372,73.658581 c 2.02375,-2.46 5.25625,-3.0875 8.1975,-3.47375 5.1150103,-0.675 10.5650003,0.6275 14.4237503,4.14875 3.18375,2.845 4.96875,7.28375 4.2925,11.57625 -0.7225,4.96875 -4.0525,9.1175 -7.8125,12.2525 -6.80125,5.449999 -15.1950003,8.633759 -23.5887503,10.756249 0.48375,-0.53125 1.01375,-1.0125 1.64,-1.39875 6.3675,-3.425 12.68625,-7.4275 17.3662503,-13.023739 2.84375,-3.47251 5.06375,-8.00751 4.1475,-12.59001 -0.96375,-5.305 -6.125,-9.165 -11.3837503,-9.45375 -2.51,-0.24125 -4.87125,0.72375 -7.2825,1.20625 z"
       stroke-miterlimit="10"
       inkscape:connector-curvature="0"
       style="fill:none;stroke:#3471c0;stroke-width:0.1171875;stroke-miterlimit:10" /><path
       id="path168"
       d="m -118.52388,78.046081 c 8.875,-3.81 18.5225,-6.27 28.217505,-6.12625 -5.643751,1.64 -11.431255,3.03875 -16.737505,5.54751 -1.25375,0.67499 -2.70125,1.30249 -3.425,2.60499 -0.385,1.0125 0.675,1.6875 1.44625,2.025 3.28,1.35125 6.89876,1.545 10.420004,1.8825 12.347501,0.82001 24.745002,0.3375 37.047502,-0.435 12.152501,-0.77125 24.213752,-2.41125 36.222502,-4.34125 -2.65125,1.255 -5.35375,2.50875 -7.8125,4.1 -1.255,0.86875 -2.7975,1.11 -4.19625,1.44751 -14.761251,3.27999 -29.908752,4.29374 -44.957503,4.53374 -5.8375,0.0487 -11.623751,-0.0475 -17.4125,-0.43375 -6.463755,-0.43375 -12.976255,-0.91625 -19.295005,-2.605 -1.83375,-0.53 -3.7625,-1.10875 -5.21,-2.41125 -0.72375,-0.57875 -0.72375,-1.7375 -0.0962,-2.41125 1.59125,-1.64125 3.81125,-2.4125 5.78875,-3.3775"
       inkscape:connector-curvature="0"
       style="fill:#3471c0" /><path
       id="path170"
       d="m -118.52388,78.046081 c 8.875,-3.81 18.5225,-6.27 28.217505,-6.12625 -5.643751,1.64 -11.431255,3.03875 -16.737505,5.54751 -1.25375,0.67499 -2.70125,1.30249 -3.425,2.60499 -0.385,1.0125 0.675,1.6875 1.44625,2.025 3.28,1.35125 6.89876,1.545 10.420004,1.8825 12.347501,0.82001 24.745002,0.3375 37.047502,-0.435 12.152501,-0.77125 24.213752,-2.41125 36.222502,-4.34125 -2.65125,1.255 -5.35375,2.50875 -7.8125,4.1 -1.255,0.86875 -2.7975,1.11 -4.19625,1.44751 -14.761251,3.27999 -29.908752,4.29374 -44.957503,4.53374 -5.8375,0.0487 -11.623751,-0.0475 -17.4125,-0.43375 -6.463755,-0.43375 -12.976255,-0.91625 -19.295005,-2.605 -1.83375,-0.53 -3.7625,-1.10875 -5.21,-2.41125 -0.72375,-0.57875 -0.72375,-1.7375 -0.0962,-2.41125 1.59125,-1.64125 3.81125,-2.4125 5.78875,-3.3775 z"
       stroke-miterlimit="10"
       inkscape:connector-curvature="0"
       style="fill:none;stroke:#3471c0;stroke-width:0.1171875;stroke-miterlimit:10" /><path
       id="path172"
       d="m -107.13638,98.646081 c 2.50876,-1.9775 5.50001,-3.0875 8.490004,-4.14874 -0.96375,1.15749 -2.314994,2.26749 -2.411254,3.85874 -0.0475,1.0125 0.7725,1.784999 1.591255,2.267499 1.591249,0.82 3.37625,1.11 5.1625,1.35001 9.26,0.96499 18.6175,1.49624 27.976251,0.86874 8.536251,-0.43375 17.0275,-1.83375 25.470001,-3.328739 2.315001,2.171239 5.063751,3.666239 7.958741,4.968749 -10.179991,2.98999 -20.646241,4.7275 -31.161242,5.54749 -9.93625,0.675 -20.017501,0.6275 -29.907502,-0.96625 -3.9075,-0.7225 -7.909994,-1.5425 -11.478754,-3.375 -1.4475,-0.7725 -3.0875,-1.785 -3.5225,-3.47375 -0.28875,-1.44625 0.7725,-2.748739 1.8325,-3.568749"
       inkscape:connector-curvature="0"
       style="fill:#3471c0" /><path
       id="path174"
       d="m -107.13638,98.646081 c 2.50876,-1.9775 5.50001,-3.0875 8.490004,-4.14874 -0.96375,1.15749 -2.314994,2.26749 -2.411254,3.85874 -0.0475,1.0125 0.7725,1.784999 1.591255,2.267499 1.591249,0.82 3.37625,1.11 5.1625,1.35001 9.26,0.96499 18.6175,1.49624 27.976251,0.86874 8.536251,-0.43375 17.0275,-1.83375 25.470001,-3.328739 2.315001,2.171239 5.063751,3.666239 7.958741,4.968749 -10.179991,2.98999 -20.646241,4.7275 -31.161242,5.54749 -9.93625,0.675 -20.017501,0.6275 -29.907502,-0.96625 -3.9075,-0.7225 -7.909994,-1.5425 -11.478754,-3.375 -1.4475,-0.7725 -3.0875,-1.785 -3.5225,-3.47375 -0.28875,-1.44625 0.7725,-2.748739 1.8325,-3.568749 z"
       stroke-miterlimit="10"
       inkscape:connector-curvature="0"
       style="fill:none;stroke:#3471c0;stroke-width:0.1171875;stroke-miterlimit:10" /><path
       id="path176"
       d="m -101.53638,119.67108 c 2.218754,-1.785 4.967505,-2.7025 7.670005,-3.47375 -0.86875,0.81875 -2.4125,1.8325 -1.73625,3.23125 1.3025,1.69 3.71375,1.8825 5.64375,2.31751 8.15125,1.01124 16.400001,1.68624 24.552501,1.05874 6.173751,-0.385 12.250001,-1.49375 18.281251,-2.55625 3.471251,2.0275 7.090001,3.76251 10.802501,5.3075 -5.690001,2.555 -11.816251,4.195 -17.941251,5.35375 -10.322501,1.8325 -20.983751,2.07375 -31.355002,0.43376 -4.5825,-0.82001 -9.261251,-1.88001 -13.408751,-4.14876 -1.592504,-0.91499 -3.280004,-1.9775 -3.955004,-3.7625 -0.53125,-1.39875 0.33626,-2.8925 1.44625,-3.76125"
       inkscape:connector-curvature="0"
       style="fill:#3471c0" /><path
       id="path178"
       d="m -101.53638,119.67108 c 2.218754,-1.785 4.967505,-2.7025 7.670005,-3.47375 -0.86875,0.81875 -2.4125,1.8325 -1.73625,3.23125 1.3025,1.69 3.71375,1.8825 5.64375,2.31751 8.15125,1.01124 16.400001,1.68624 24.552501,1.05874 6.173751,-0.385 12.250001,-1.49375 18.281251,-2.55625 3.471251,2.0275 7.090001,3.76251 10.802501,5.3075 -5.690001,2.555 -11.816251,4.195 -17.941251,5.35375 -10.322501,1.8325 -20.983751,2.07375 -31.355002,0.43376 -4.5825,-0.82001 -9.261251,-1.88001 -13.408751,-4.14876 -1.592504,-0.91499 -3.280004,-1.9775 -3.955004,-3.7625 -0.53125,-1.39875 0.33626,-2.8925 1.44625,-3.76125 z"
       stroke-miterlimit="10"
       inkscape:connector-curvature="0"
       style="fill:none;stroke:#3471c0;stroke-width:0.1171875;stroke-miterlimit:10" /><path
       id="path180"
       d="m -128.31138,133.32108 c 4.43875,-1.495 9.02125,-2.70125 13.7,-2.845 1.88125,-0.0487 3.81,0.0475 5.45,1.01251 -5.595,0.33749 -11.19125,1.73624 -16.2075,4.29249 -1.10875,0.62751 -2.36375,1.35125 -2.7975,2.65376 0,1.49499 1.68875,1.97749 2.7975,2.45875 6.995,2.605 14.47125,3.42499 21.80375,4.19749 21.850005,1.8325 43.845007,1.35126 65.696258,-0.6275 8.24875,-0.91624 16.545,-1.8325 24.5525,-4.1 2.55626,-0.86875 5.4500003,-1.73499 7.1387503,-4.00374 1.01375,-1.35001 0.34001,-3.03876 -0.67375,-4.19626 1.63875,0.9175 3.955,2.075 3.61875,4.29376 -0.6275,2.315 -2.99375,3.52124 -4.9225,4.63 -6.1737503,3.13624 -12.9750003,4.72875 -19.7287503,6.12624 -19.631251,3.85876 -39.746252,4.7275 -59.716253,4.14876 -15.049995,-0.5325 -30.098755,-1.97876 -44.956255,-4.53376 -2.6525,-0.62749 -5.6425,-1.16 -7.5725,-3.23249 -1.25375,-1.44751 -0.145,-3.47376 1.06,-4.53375 3.04,-2.7975 6.9475,-4.34126 10.7575,-5.74126"
       inkscape:connector-curvature="0"
       style="fill:#3471c0" /><path
       id="path182"
       d="m -128.31138,133.32108 c 4.43875,-1.495 9.02125,-2.70125 13.7,-2.845 1.88125,-0.0487 3.81,0.0475 5.45,1.01251 -5.595,0.33749 -11.19125,1.73624 -16.2075,4.29249 -1.10875,0.62751 -2.36375,1.35125 -2.7975,2.65376 0,1.49499 1.68875,1.97749 2.7975,2.45875 6.995,2.605 14.47125,3.42499 21.80375,4.19749 21.850005,1.8325 43.845007,1.35126 65.696258,-0.6275 8.24875,-0.91624 16.545,-1.8325 24.5525,-4.1 2.55626,-0.86875 5.4500003,-1.73499 7.1387503,-4.00374 1.01375,-1.35001 0.34001,-3.03876 -0.67375,-4.19626 1.63875,0.9175 3.955,2.075 3.61875,4.29376 -0.6275,2.315 -2.99375,3.52124 -4.9225,4.63 -6.1737503,3.13624 -12.9750003,4.72875 -19.7287503,6.12624 -19.631251,3.85876 -39.746252,4.7275 -59.716253,4.14876 -15.049995,-0.5325 -30.098755,-1.97876 -44.956255,-4.53376 -2.6525,-0.62749 -5.6425,-1.16 -7.5725,-3.23249 -1.25375,-1.44751 -0.145,-3.47376 1.06,-4.53375 3.04,-2.7975 6.9475,-4.34126 10.7575,-5.74126 z"
       stroke-miterlimit="10"
       inkscape:connector-curvature="0"
       style="fill:none;stroke:#3471c0;stroke-width:0.1171875;stroke-miterlimit:10" /><path
       id="path184"
       d="m -8.0988717,149.82108 c 4.87375,-1.68875 10.08125,-3.47374 13.69875,-7.3325 -0.6275,4.19625 -4.24499,7.09125 -7.815,8.97126 -6.8475,3.57124 -14.5187503,5.20999 -22.1375003,6.56 -16.11375,2.5575 -32.463751,3.18375 -48.817502,2.89625 -11.142501,-0.33875 -22.381251,-0.77251 -33.331256,-3.08876 -2.605,-0.7225 -5.4025,-1.20625 -7.66875,-2.74875 9.7425,1.64 19.632505,2.31625 29.521255,2.70125 16.255001,0.48251 32.558752,-0.14375 48.718753,-2.17124 9.3575,-1.30126 18.7625,-2.89376 27.8312503,-5.78751"
       inkscape:connector-curvature="0"
       style="fill:#3471c0" /><path
       id="path186"
       d="m -8.0988717,149.82108 c 4.87375,-1.68875 10.08125,-3.47374 13.69875,-7.3325 -0.6275,4.19625 -4.24499,7.09125 -7.815,8.97126 -6.8475,3.57124 -14.5187503,5.20999 -22.1375003,6.56 -16.11375,2.5575 -32.463751,3.18375 -48.817502,2.89625 -11.142501,-0.33875 -22.381251,-0.77251 -33.331256,-3.08876 -2.605,-0.7225 -5.4025,-1.20625 -7.66875,-2.74875 9.7425,1.64 19.632505,2.31625 29.521255,2.70125 16.255001,0.48251 32.558752,-0.14375 48.718753,-2.17124 9.3575,-1.30126 18.7625,-2.89376 27.8312503,-5.78751 z"
       stroke-miterlimit="10"
       inkscape:connector-curvature="0"
       style="fill:none;stroke:#3471c0;stroke-width:0.1171875;stroke-miterlimit:10" /></g></svg>